# xmcd CD database file
#
# Track frame offsets:
#	150
#	39885
#	102392
#	166547
#	221645
#	275430
#
# Disc length: 4479 seconds
#
# Revision: 1
# Processed by: cddbd v1.5.1PL0 Copyright (c) Steve Scherf et al.
# Submitted via: CDex 1.51
#
DISCID=47117d06
DTITLE=Ken Skinner and the jazzmongers! - Sterling Silver
DYEAR=1900
DGENRE=Jazz
TTITLE0=Cat Food
TTITLE1=Ola
TTITLE2=Apartment 503
TTITLE3=Snakin' Around
TTITLE4=Viper's Fog
TTITLE5=Jombo Memsahb
EXTD=
EXTT0=
EXTT1=
EXTT2=
EXTT3=
EXTT4=
EXTT5=
PLAYORDER=
